<?xml version="1.0" standalone="no"?>
<!DOCTYPE svg PUBLIC "-//W3C//DTD SVG 20010904//EN" "http://www.w3.org/TR/2001/REC-SVG-20010904/DTD/svg10.dtd">
<svg version="1.0" xmlns="http://www.w3.org/2000/svg"
    width="1906.000000pt" height="2099.000000pt" viewBox="0 0 1906.000000 2099.000000"
    preserveAspectRatio="xMidYMid meet">
    <metadata> Created by potrace 1.14, written by Peter Selinger 2001-2017 </metadata>
    <g transform="translate(0.000000,2099.000000) scale(0.100000,-0.100000)"
        fill="#39BA1F" stroke="none">
        <path
            d="M18316 20881 c-460 -525 -1073 -884 -2011 -1179 -307 -97 -405 -125
-1140 -332 -721 -202 -1391 -412 -1830 -573 -1897 -694 -3241 -1734 -4109
-3179 -605 -1008 -910 -2136 -933 -3445 -3 -189 -3 -343 1 -343 4 0 105 98
224 218 545 548 1078 921 1712 1195 225 98 231 102 267 155 48 70 75 145 137
376 122 454 263 821 458 1196 530 1018 1345 1816 2486 2434 281 152 607 298
1062 476 74 29 234 93 356 141 121 49 223 89 227 89 7 0 47 -83 47 -97 0 -5
-98 -56 -217 -115 -1022 -501 -1777 -1037 -2397 -1703 -603 -649 -1007 -1353
-1230 -2145 -70 -248 -129 -530 -111 -530 7 0 147 31 311 70 402 94 451 105
584 135 63 14 142 32 175 40 33 8 236 55 450 105 747 175 1277 316 1634 436
1102 371 2016 971 2704 1773 613 716 994 1545 1166 2541 41 241 64 436 93 800
18 236 15 979 -6 1295 -10 143 -19 261 -20 262 -2 2 -42 -42 -90 -96z" />
        <path
            d="M1157 17698 c-3 -13 -14 -102 -24 -198 -22 -216 -25 -732 -5 -915 74
-686 293 -1266 665 -1765 230 -308 570 -630 907 -858 322 -217 717 -418 1115
-567 588 -220 1280 -374 2050 -455 255 -27 237 -28 230 18 -16 93 -70 298
-114 431 -246 743 -754 1410 -1578 2073 -65 53 -125 104 -133 113 -14 16 -13
17 10 11 49 -15 308 -146 453 -230 892 -514 1461 -1187 1772 -2096 84 -244
188 -433 309 -558 122 -128 438 -338 956 -637 74 -43 195 -113 267 -157 76
-44 144 -78 159 -78 l27 0 -5 323 c-6 354 -11 389 -94 737 -233 964 -663 1741
-1311 2370 -664 645 -1538 1124 -2688 1475 -619 189 -767 236 -1160 369 -346
116 -568 193 -850 292 -104 36 -208 72 -230 79 -22 8 -146 50 -275 95 -315
110 -434 150 -441 150 -4 0 -9 -10 -12 -22z" />
    </g>
    <g transform="translate(0.000000,2099.000000) scale(0.100000,-0.100000)"
        fill="#2C62AE" stroke="none">
        <path
            d="M7678 11451 c-370 -227 -552 -419 -632 -665 -60 -183 -7 -329 133
-366 89 -23 191 22 230 103 35 73 37 128 6 252 -17 70 -25 126 -22 152 12 114
123 246 305 366 113 75 112 73 94 183 l-7 41 -107 -66z" />
        <path
            d="M4120 11249 c-805 -64 -1412 -305 -1916 -757 -415 -373 -695 -898
-808 -1514 -40 -214 -55 -346 -66 -585 -21 -453 21 -873 126 -1251 259 -932
910 -1574 1854 -1827 623 -167 1421 -165 2065 5 532 140 952 378 1319 746 566
568 846 1340 846 2331 0 252 -12 407 -51 642 -98 593 -345 1079 -741 1456
-434 413 -975 651 -1677 736 -191 23 -753 34 -951 18z m540 -484 c524 -63 887
-291 1172 -735 232 -361 365 -775 423 -1320 22 -208 30 -619 16 -825 -28 -395
-77 -663 -178 -970 -124 -379 -262 -623 -468 -830 -266 -267 -606 -405 -1045
-422 -507 -19 -935 126 -1252 426 -423 401 -659 1012 -728 1884 -13 174 -14
678 0 817 42 438 136 808 280 1105 248 509 662 800 1237 870 145 17 402 18
543 0z" />
        <path
            d="M8297 11143 c-14 -17 -17 -40 -17 -160 0 -122 2 -142 18 -156 14 -13
57 -19 207 -27 402 -23 418 -36 455 -375 28 -257 32 -624 27 -2430 -7 -2149
-7 -2160 -91 -2238 -22 -21 -97 -75 -167 -120 -74 -47 -130 -90 -133 -102 -3
-11 -6 -50 -6 -86 0 -102 -7 -100 250 -89 284 12 1250 12 2669 0 l1154 -11 23
22 c22 21 23 26 23 228 2 321 22 674 57 994 22 195 28 187 -147 187 -123 0
-128 -1 -147 -24 -12 -16 -25 -63 -36 -133 -51 -312 -122 -607 -158 -651 -45
-53 -227 -84 -668 -113 -85 -5 -441 -12 -791 -16 l-636 -6 -6 159 c-4 87 -7
605 -7 1150 l0 991 38 6 c116 18 527 28 741 18 500 -25 671 -62 715 -156 31
-65 46 -168 52 -355 8 -243 -2 -230 188 -230 124 0 142 2 151 18 12 20 13
1771 1 1790 -5 8 -48 12 -146 12 -172 0 -165 6 -174 -165 -12 -240 -44 -385
-96 -428 -59 -50 -87 -52 -755 -52 -341 0 -642 4 -669 8 l-48 9 5 806 c4 729
12 996 35 1182 l7 55 80 7 c184 15 784 21 990 9 386 -21 664 -54 741 -86 70
-29 92 -126 101 -433 8 -289 -3 -272 171 -272 119 0 128 1 141 21 13 22 32
198 51 468 5 78 17 200 25 270 8 69 24 207 35 306 19 172 19 181 2 198 -17 17
-73 17 -1213 6 -1104 -11 -2807 -6 -2959 7 -56 5 -67 3 -83 -13z" />
        <path
            d="M13563 11145 c-22 -15 -23 -22 -23 -159 0 -126 2 -145 18 -160 15
-13 56 -18 208 -26 292 -16 346 -31 394 -107 34 -53 54 -171 72 -428 19 -259
19 -3760 0 -4020 -14 -199 -35 -349 -56 -399 -17 -41 -67 -83 -114 -95 -51
-14 -193 -30 -349 -39 -180 -11 -173 -4 -173 -187 0 -124 2 -144 18 -158 16
-15 44 -15 282 -7 348 12 1585 12 2009 0 305 -9 336 -8 353 7 16 14 18 33 18
153 0 193 22 179 -312 202 -144 10 -279 23 -300 29 -52 14 -112 69 -126 116
-17 58 -31 215 -42 463 -12 286 -13 3733 0 4053 11 280 14 303 43 310 12 3
127 16 255 28 208 21 246 22 360 11 390 -36 639 -201 775 -516 110 -256 140
-668 71 -1006 -76 -371 -299 -624 -622 -706 -174 -44 -328 -41 -519 10 l-53
14 -35 -41 c-19 -22 -35 -44 -35 -49 0 -5 22 -52 49 -106 26 -53 56 -118 65
-143 17 -46 19 -47 74 -58 215 -42 514 -53 713 -26 365 48 697 196 1016 454
182 146 315 313 413 516 120 249 170 484 170 797 0 79 -5 182 -10 228 -24 194
-103 418 -198 557 -57 84 -194 209 -292 267 -152 90 -348 156 -580 195 -236
40 -386 44 -1355 30 -838 -11 -1918 -8 -2090 7 -56 4 -75 2 -92 -11z" />
        
    </g>
</svg>